<svg width="25" height="24" viewBox="0 0 25 24" fill="none" xmlns="http://www.w3.org/2000/svg">
<path d="M12.5 0C15.6826 0 18.7348 1.26428 20.9853 3.51472C23.2357 5.76516 24.5 8.8174 24.5 12C24.5 15.1826 23.2357 18.2348 20.9853 20.4853C18.7348 22.7357 15.6826 24 12.5 24C9.3174 24 6.26516 22.7357 4.01472 20.4853C1.76428 18.2348 0.5 15.1826 0.5 12C0.5 8.8174 1.76428 5.76516 4.01472 3.51472C6.26516 1.26428 9.3174 0 12.5 0ZM7.25 11.25C7.05109 11.25 6.86032 11.329 6.71967 11.4697C6.57902 11.6103 6.5 11.8011 6.5 12C6.5 12.1989 6.57902 12.3897 6.71967 12.5303C6.86032 12.671 7.05109 12.75 7.25 12.75H15.9395L12.719 15.969C12.6493 16.0387 12.594 16.1215 12.5562 16.2126C12.5185 16.3037 12.4991 16.4014 12.4991 16.5C12.4991 16.5986 12.5185 16.6963 12.5562 16.7874C12.594 16.8785 12.6493 16.9613 12.719 17.031C12.7887 17.1007 12.8715 17.156 12.9626 17.1938C13.0537 17.2315 13.1514 17.2509 13.25 17.2509C13.3486 17.2509 13.4463 17.2315 13.5374 17.1938C13.6285 17.156 13.7113 17.1007 13.781 17.031L18.281 12.531C18.3508 12.4613 18.4063 12.3786 18.4441 12.2874C18.4819 12.1963 18.5013 12.0987 18.5013 12C18.5013 11.9013 18.4819 11.8037 18.4441 11.7125C18.4063 11.6214 18.3508 11.5387 18.281 11.469L13.781 6.969C13.7113 6.89927 13.6285 6.84395 13.5374 6.80621C13.4463 6.76848 13.3486 6.74905 13.25 6.74905C13.1514 6.74905 13.0537 6.76848 12.9626 6.80621C12.8715 6.84395 12.7887 6.89927 12.719 6.969C12.6493 7.03873 12.594 7.12152 12.5562 7.21262C12.5185 7.30373 12.4991 7.40138 12.4991 7.5C12.4991 7.59862 12.5185 7.69627 12.5562 7.78738C12.594 7.87848 12.6493 7.96127 12.719 8.031L15.9395 11.25H7.25Z" fill="#C7C7C8"/>
</svg>
