<svg width="10" height="10" viewBox="0 0 10 10" fill="none" xmlns="http://www.w3.org/2000/svg">
<path opacity="0.6" d="M0.806664 0.807503C0.864721 0.749299 0.93369 0.70312 1.00962 0.671612C1.08555 0.640104 1.16695 0.623886 1.24916 0.623886C1.33137 0.623886 1.41277 0.640104 1.48871 0.671612C1.56464 0.70312 1.63361 0.749299 1.69166 0.807503L4.99916 4.11625L8.30666 0.807503C8.36477 0.749393 8.43376 0.703298 8.50968 0.671849C8.58561 0.6404 8.66698 0.624213 8.74916 0.624213C8.83134 0.624213 8.91272 0.6404 8.98864 0.671849C9.06457 0.703298 9.13355 0.749393 9.19166 0.807503C9.24977 0.865613 9.29587 0.934599 9.32732 1.01052C9.35877 1.08645 9.37495 1.16782 9.37495 1.25C9.37495 1.33218 9.35877 1.41356 9.32732 1.48948C9.29587 1.56541 9.24977 1.63439 9.19166 1.6925L5.88291 5L9.19166 8.3075C9.24977 8.36561 9.29587 8.4346 9.32732 8.51052C9.35877 8.58645 9.37495 8.66782 9.37495 8.75C9.37495 8.83218 9.35877 8.91356 9.32732 8.98948C9.29587 9.06541 9.24977 9.13439 9.19166 9.1925C9.13355 9.25061 9.06457 9.29671 8.98864 9.32816C8.91272 9.35961 8.83134 9.37579 8.74916 9.37579C8.66698 9.37579 8.58561 9.35961 8.50968 9.32816C8.43376 9.29671 8.36477 9.25061 8.30666 9.1925L4.99916 5.88375L1.69166 9.1925C1.63355 9.25061 1.56457 9.29671 1.48864 9.32816C1.41272 9.35961 1.33134 9.37579 1.24916 9.37579C1.16698 9.37579 1.08561 9.35961 1.00968 9.32816C0.93376 9.29671 0.864774 9.25061 0.806664 9.1925C0.748554 9.13439 0.702458 9.06541 0.67101 8.98948C0.639561 8.91356 0.623374 8.83218 0.623374 8.75C0.623374 8.66782 0.639561 8.58645 0.67101 8.51052C0.702458 8.4346 0.748554 8.36561 0.806664 8.3075L4.11541 5L0.806664 1.6925C0.74846 1.63445 0.702281 1.56548 0.670773 1.48955C0.639265 1.41361 0.623047 1.33221 0.623047 1.25C0.623047 1.16779 0.639265 1.08639 0.670773 1.01046C0.702281 0.93453 0.74846 0.86556 0.806664 0.807503Z" fill="white"/>
</svg>
