<svg width="20" height="20" viewBox="0 0 20 20" fill="none" xmlns="http://www.w3.org/2000/svg">
<g clip-path="url(#clip0_37_840)">
<path d="M9.92213 2.52C9.94663 2.50657 9.97418 2.49968 10.0021 2.5C10.0296 2.49989 10.0567 2.50677 10.0809 2.52C10.1095 2.53714 10.1328 2.56178 10.1484 2.59125L18.7196 17.175C18.7646 17.25 18.7634 17.33 18.7221 17.4038C18.7063 17.434 18.6831 17.4598 18.6546 17.4788C18.6299 17.4939 18.6011 17.5013 18.5721 17.5H1.43213C1.40311 17.5014 1.37435 17.494 1.34963 17.4788C1.32119 17.4598 1.29798 17.434 1.28213 17.4038C1.26153 17.3691 1.25087 17.3294 1.25131 17.289C1.25175 17.2487 1.26327 17.2092 1.28463 17.175L9.85463 2.59125C9.87025 2.56182 9.89358 2.53719 9.92213 2.52ZM11.2271 1.9575C11.1034 1.74196 10.925 1.56288 10.7099 1.43834C10.4948 1.31381 10.2507 1.24823 10.0021 1.24823C9.75359 1.24823 9.50945 1.31381 9.29437 1.43834C9.07928 1.56288 8.90086 1.74196 8.77713 1.9575L0.205877 16.5413C-0.365373 17.5138 0.319627 18.75 1.43088 18.75H18.5721C19.6834 18.75 20.3696 17.5125 19.7971 16.5413L11.2271 1.9575Z" fill="white"/>
<path d="M8.75195 15C8.75195 14.8358 8.78429 14.6733 8.8471 14.5216C8.90992 14.37 9.002 14.2322 9.11807 14.1161C9.23414 14 9.37194 13.908 9.5236 13.8451C9.67526 13.7823 9.8378 13.75 10.002 13.75C10.1661 13.75 10.3287 13.7823 10.4803 13.8451C10.632 13.908 10.7698 14 10.8858 14.1161C11.0019 14.2322 11.094 14.37 11.1568 14.5216C11.2196 14.6733 11.252 14.8358 11.252 15C11.252 15.3315 11.1203 15.6495 10.8858 15.8839C10.6514 16.1183 10.3335 16.25 10.002 16.25C9.67043 16.25 9.35249 16.1183 9.11807 15.8839C8.88365 15.6495 8.75195 15.3315 8.75195 15ZM8.87445 7.49374C8.85781 7.33605 8.8745 7.17661 8.92345 7.02578C8.97241 6.87495 9.05252 6.7361 9.1586 6.61823C9.26468 6.50036 9.39436 6.40611 9.53922 6.3416C9.68408 6.27708 9.84088 6.24374 9.99945 6.24374C10.158 6.24374 10.3148 6.27708 10.4597 6.3416C10.6045 6.40611 10.7342 6.50036 10.8403 6.61823C10.9464 6.7361 11.0265 6.87495 11.0755 7.02578C11.1244 7.17661 11.1411 7.33605 11.1245 7.49374L10.687 11.8775C10.6723 12.0497 10.5935 12.2101 10.4661 12.327C10.3388 12.4439 10.1723 12.5088 9.99945 12.5088C9.82661 12.5088 9.66007 12.4439 9.53276 12.327C9.40545 12.2101 9.32665 12.0497 9.31195 11.8775L8.87445 7.49374Z" fill="white"/>
</g>
<defs>
<clipPath id="clip0_37_840">
<rect width="20" height="20" fill="white"/>
</clipPath>
</defs>
</svg>
