<svg width="20" height="20" viewBox="0 0 20 20" fill="none" xmlns="http://www.w3.org/2000/svg">
<g clip-path="url(#clip0_37_792)">
<path d="M10 18.75C7.67936 18.75 5.45376 17.8281 3.81282 16.1872C2.17187 14.5462 1.25 12.3206 1.25 10C1.25 7.67936 2.17187 5.45376 3.81282 3.81282C5.45376 2.17187 7.67936 1.25 10 1.25C12.3206 1.25 14.5462 2.17187 16.1872 3.81282C17.8281 5.45376 18.75 7.67936 18.75 10C18.75 12.3206 17.8281 14.5462 16.1872 16.1872C14.5462 17.8281 12.3206 18.75 10 18.75ZM10 20C12.6522 20 15.1957 18.9464 17.0711 17.0711C18.9464 15.1957 20 12.6522 20 10C20 7.34784 18.9464 4.8043 17.0711 2.92893C15.1957 1.05357 12.6522 0 10 0C7.34784 0 4.8043 1.05357 2.92893 2.92893C1.05357 4.8043 0 7.34784 0 10C0 12.6522 1.05357 15.1957 2.92893 17.0711C4.8043 18.9464 7.34784 20 10 20Z" fill="white"/>
<path d="M8.75195 13.75C8.75195 13.5858 8.78429 13.4233 8.8471 13.2716C8.90992 13.12 9.002 12.9822 9.11807 12.8661C9.23414 12.75 9.37194 12.658 9.5236 12.5952C9.67526 12.5323 9.8378 12.5 10.002 12.5C10.1661 12.5 10.3287 12.5323 10.4803 12.5952C10.632 12.658 10.7698 12.75 10.8858 12.8661C11.0019 12.9822 11.094 13.12 11.1568 13.2716C11.2196 13.4233 11.252 13.5858 11.252 13.75C11.252 14.0815 11.1203 14.3995 10.8858 14.6339C10.6514 14.8683 10.3335 15 10.002 15C9.67043 15 9.35249 14.8683 9.11807 14.6339C8.88365 14.3995 8.75195 14.0815 8.75195 13.75ZM8.87445 6.24375C8.85781 6.08605 8.8745 5.92662 8.92345 5.77579C8.97241 5.62496 9.05252 5.4861 9.1586 5.36824C9.26468 5.25037 9.39436 5.15612 9.53922 5.0916C9.68408 5.02709 9.84088 4.99375 9.99945 4.99375C10.158 4.99375 10.3148 5.02709 10.4597 5.0916C10.6045 5.15612 10.7342 5.25037 10.8403 5.36824C10.9464 5.4861 11.0265 5.62496 11.0755 5.77579C11.1244 5.92662 11.1411 6.08605 11.1245 6.24375L10.687 10.6275C10.6723 10.7997 10.5935 10.9601 10.4661 11.077C10.3388 11.194 10.1723 11.2588 9.99945 11.2588C9.82661 11.2588 9.66007 11.194 9.53276 11.077C9.40545 10.9601 9.32665 10.7997 9.31195 10.6275L8.87445 6.24375Z" fill="white"/>
</g>
<defs>
<clipPath id="clip0_37_792">
<rect width="20" height="20" fill="white"/>
</clipPath>
</defs>
</svg>
