<svg width="20" height="20" viewBox="0 0 20 20" fill="none" xmlns="http://www.w3.org/2000/svg">
<path d="M3.12501 10C3.12482 8.7931 3.44235 7.60741 4.04568 6.56213C4.64901 5.51684 5.51688 4.64881 6.56205 4.04527C7.60721 3.44174 8.79284 3.12397 9.99974 3.12393C11.2066 3.12388 12.3923 3.44155 13.4375 4.045C13.581 4.12658 13.7509 4.14809 13.9102 4.10485C14.0695 4.0616 14.2052 3.95712 14.2877 3.81419C14.3702 3.67126 14.3928 3.50149 14.3507 3.34193C14.3085 3.18237 14.2049 3.04597 14.0625 2.9625C12.5136 2.06823 10.7129 1.71003 8.93962 1.94345C7.16637 2.17688 5.51969 2.98888 4.25495 4.25353C2.99022 5.51818 2.17811 7.16481 1.94457 8.93805C1.71104 10.7113 2.06912 12.512 2.96329 14.061C3.85747 15.61 5.23776 16.8207 6.89011 17.5052C8.54245 18.1898 10.3745 18.3101 12.1022 17.8473C13.8298 17.3846 15.3565 16.3647 16.4455 14.9459C17.5344 13.527 18.1248 11.7885 18.125 10C18.125 9.83424 18.0592 9.67527 17.942 9.55806C17.8247 9.44085 17.6658 9.375 17.5 9.375C17.3343 9.375 17.1753 9.44085 17.0581 9.55806C16.9409 9.67527 16.875 9.83424 16.875 10C16.875 11.8234 16.1507 13.5721 14.8614 14.8614C13.5721 16.1507 11.8234 16.875 10 16.875C8.17665 16.875 6.42797 16.1507 5.13865 14.8614C3.84934 13.5721 3.12501 11.8234 3.12501 10Z" fill="white"/>
<path d="M19.1933 4.1925C19.2514 4.13439 19.2975 4.06541 19.3289 3.98948C19.3604 3.91356 19.3766 3.83218 19.3766 3.75C19.3766 3.66782 19.3604 3.58645 19.3289 3.51052C19.2975 3.4346 19.2514 3.36561 19.1933 3.3075C19.1352 3.24939 19.0662 3.2033 18.9903 3.17185C18.9143 3.1404 18.833 3.12421 18.7508 3.12421C18.6686 3.12421 18.5872 3.1404 18.5113 3.17185C18.4354 3.2033 18.3664 3.24939 18.3083 3.3075L10.0008 11.6163L6.69329 8.3075C6.63518 8.24939 6.56619 8.2033 6.49027 8.17185C6.41435 8.1404 6.33297 8.12421 6.25079 8.12421C6.16861 8.12421 6.08723 8.1404 6.01131 8.17185C5.93539 8.2033 5.8664 8.24939 5.80829 8.3075C5.75018 8.36561 5.70408 8.4346 5.67264 8.51052C5.64119 8.58645 5.625 8.66782 5.625 8.75C5.625 8.83218 5.64119 8.91356 5.67264 8.98948C5.70408 9.06541 5.75018 9.13439 5.80829 9.1925L9.55829 12.9425C9.61635 13.0007 9.68532 13.0469 9.76125 13.0784C9.83718 13.1099 9.91858 13.1261 10.0008 13.1261C10.083 13.1261 10.1644 13.1099 10.2403 13.0784C10.3163 13.0469 10.3852 13.0007 10.4433 12.9425L19.1933 4.1925Z" fill="white"/>
</svg>
